<?xml version="1.0" encoding="UTF-8" standalone="no"?>
<!-- Created with Inkscape (http://www.inkscape.org/) -->

<svg
   version="1.0"
   width="166.15623"
   height="166.1875"
   id="svg2424"
   xmlns="http://www.w3.org/2000/svg"
   xmlns:svg="http://www.w3.org/2000/svg">
  <defs
     id="defs2426" />
  <g
     transform="translate(-39.387809,-137.76651)"
     id="layer1">
    <g
       transform="matrix(0.8746356,0,0,0.8746356,14.730518,23.408954)"
       id="g2424">
      <path
         d="m 123.15962,130.7488 c -8.45708,20.73453 -13.55799,34.29735 -22.97385,54.41552 5.7731,6.11948 12.85931,13.24593 24.36729,21.29458 -12.37221,-5.09109 -20.81157,-10.20242 -27.118435,-15.50646 -12.050505,25.14523 -30.93018,60.96349 -69.243123,129.80406 30.112687,-17.38458 53.455507,-28.10236 75.209898,-32.19198 -0.93415,-4.01773 -1.46524,-8.36369 -1.42917,-12.89823 l 0.0357,-0.96469 c 0.47782,-19.2924 10.51371,-34.12825 22.40218,-33.12093 11.88849,1.00732 21.12927,17.4729 20.65146,36.76531 -0.0899,3.63022 -0.49934,7.12245 -1.21479,10.36146 21.5182,4.20934 44.61141,14.89968 74.31667,32.04906 -5.8573,-10.78369 -11.08544,-20.5044 -16.07813,-29.7624 -7.86429,-6.09535 -16.06714,-14.02847 -32.79937,-22.61656 11.50078,2.98839 19.73519,6.43619 26.15375,10.29 C 144.67769,184.15751 140.56706,171.59908 123.15962,130.7488 Z"
         id="path2518"
         style="fill:#1793d1;fill-opacity:1;fill-rule:evenodd;stroke:none;stroke-width:1.14333" />
    </g>
  </g>
</svg>
